<?xml version="1.0" standalone="no"?>
<!DOCTYPE svg PUBLIC "-//W3C//DTD SVG 20010904//EN"
 "http://www.w3.org/TR/2001/REC-SVG-20010904/DTD/svg10.dtd">
<svg version="1.0" xmlns="http://www.w3.org/2000/svg"
 width="1024.000000pt" height="1024.000000pt" viewBox="0 0 1024.000000 1024.000000"
 preserveAspectRatio="xMidYMid meet">

<g transform="translate(0.000000,1024.000000) scale(0.100000,-0.100000)"
fill="#000000" stroke="none">
<path d="M4925 8579 c-191 -19 -424 -75 -611 -145 -225 -84 -495 -239 -673
-389 -94 -78 -279 -268 -358 -367 -253 -318 -437 -779 -485 -1212 -33 -302 27
-714 148 -1009 195 -480 515 -874 934 -1152 143 -95 217 -136 345 -190 50 -20
103 -49 118 -64 16 -14 58 -78 94 -141 37 -63 119 -205 183 -315 65 -110 161
-279 215 -375 141 -253 255 -451 277 -482 14 -20 28 -28 48 -28 38 0 55 24
230 344 139 254 226 406 405 706 51 86 106 182 123 215 39 77 71 106 157 139
232 90 549 315 765 543 176 186 317 391 431 628 119 246 184 456 215 688 23
172 14 558 -15 702 -55 267 -171 561 -313 789 -69 111 -235 323 -338 430 -350
366 -870 619 -1397 681 -135 16 -365 18 -498 4z m540 -228 c72 -11 162 -27
200 -35 598 -138 1140 -583 1426 -1171 82 -169 128 -301 166 -472 27 -122 28
-139 27 -388 0 -275 -11 -372 -65 -566 -60 -217 -213 -521 -354 -705 -105
-137 -245 -291 -330 -364 -194 -165 -449 -322 -641 -394 -39 -15 -80 -37 -91
-49 -11 -12 -49 -78 -85 -147 -36 -69 -137 -249 -224 -400 -87 -151 -188 -334
-225 -405 -37 -72 -77 -139 -88 -149 -21 -19 -21 -19 -42 0 -12 10 -34 45 -50
76 -16 31 -86 159 -155 285 -70 125 -170 305 -222 398 -52 94 -111 204 -132
245 -48 95 -67 112 -160 145 -275 99 -540 273 -775 510 -313 315 -520 693
-604 1100 -63 309 -47 699 40 971 91 286 191 479 360 697 332 427 782 706
1294 800 187 35 173 34 400 35 151 2 232 -3 330 -17z"/>
<path d="M4891 7417 c-35 -18 -63 -60 -59 -90 l3 -26 53 35 c38 26 52 42 52
59 0 17 7 25 23 28 14 3 10 5 -13 5 -19 1 -46 -4 -59 -11z"/>
<path d="M4539 7362 c-52 -58 -87 -102 -122 -154 -18 -26 -37 -48 -42 -48 -16
0 -135 -144 -173 -207 -20 -34 -30 -59 -24 -65 5 -5 85 -8 182 -6 234 4 217
-18 217 287 0 127 -1 231 -2 231 -2 0 -18 -17 -36 -38z"/>
<path d="M5424 7384 c3 -9 6 -18 6 -20 0 -3 4 -3 9 0 5 3 9 -17 9 -45 0 -36 5
-54 17 -63 22 -16 34 -84 34 -198 1 -101 -12 -178 -40 -229 -10 -20 -19 -46
-19 -58 0 -11 -6 -21 -12 -21 -9 0 -9 -3 1 -9 12 -8 11 -17 -7 -59 -27 -63
-28 -113 -3 -136 23 -21 121 -33 293 -35 125 -2 207 8 300 35 26 8 69 14 97
14 30 0 51 5 54 13 6 15 43 -5 40 -22 -2 -6 6 -11 17 -11 11 0 27 -11 36 -25
15 -24 16 -46 5 -267 -7 -133 -14 -245 -17 -250 -7 -10 -1 -10 30 2 14 5 35
24 46 42 18 31 20 51 20 271 0 231 -1 238 -19 232 -14 -4 -23 0 -31 15 -13 25
-34 26 -27 1 4 -16 1 -18 -22 -12 -19 6 -28 17 -35 44 l-10 37 -279 0 c-321 0
-330 2 -375 79 l-27 46 -5 302 c-4 267 -7 304 -22 319 -23 23 -72 29 -64 8z"/>
<path d="M3365 6667 c-4 -13 -5 -190 -3 -393 l3 -369 28 -65 c15 -36 37 -100
48 -144 45 -175 198 -420 374 -599 44 -44 79 -86 77 -91 -2 -6 -1 -8 3 -4 4 3
25 -12 48 -34 49 -46 211 -170 279 -213 30 -19 49 -39 53 -55 7 -30 61 -70 96
-70 13 0 33 -7 43 -15 24 -18 81 -21 70 -3 -4 6 -3 9 2 6 5 -3 43 -16 84 -28
41 -13 105 -38 141 -56 67 -33 85 -57 114 -152 4 -13 24 -49 44 -80 58 -88
281 -544 281 -574 0 -36 16 -44 31 -16 7 12 22 31 35 40 25 21 74 100 74 121
0 8 7 18 16 21 10 4 14 12 10 23 -4 10 -4 14 0 10 8 -7 41 42 69 100 8 17 19
34 24 37 5 4 17 28 27 54 33 91 48 122 60 122 14 0 27 28 18 41 -3 5 -1 9 4 9
5 0 15 11 22 25 7 14 16 25 20 25 3 0 32 24 64 52 44 40 65 53 93 55 20 1 59
16 87 34 28 18 83 49 121 69 135 70 258 152 244 161 -11 7 -9 9 7 9 24 0 104
59 104 77 0 7 5 12 12 10 6 -1 21 12 32 30 12 18 28 32 37 33 24 0 42 26 36
50 -3 13 0 20 9 20 8 0 14 -4 14 -10 0 -5 5 -10 12 -10 6 0 2 10 -9 23 -11 12
-28 36 -37 53 -15 32 -165 195 -166 182 0 -4 7 -14 16 -22 14 -15 13 -16 -10
-16 -14 0 -26 -4 -26 -10 0 -5 -9 -10 -20 -10 -13 0 -20 7 -20 20 0 11 -4 20
-10 20 -5 0 -10 8 -11 18 0 13 -2 14 -6 2 -3 -8 -12 -19 -19 -23 -16 -9 -19
-37 -4 -37 6 0 10 -24 10 -54 0 -30 -4 -58 -10 -61 -5 -3 -10 -15 -10 -26 0
-10 -4 -19 -10 -19 -5 0 -10 -8 -10 -18 0 -11 -9 -27 -20 -37 -11 -10 -20 -26
-20 -35 0 -10 -9 -20 -20 -23 -15 -4 -20 0 -20 14 0 12 -7 19 -20 19 -13 0
-20 -7 -20 -20 0 -13 -7 -20 -20 -20 -13 0 -20 7 -20 20 0 13 -7 20 -20 20
-13 0 -20 -7 -20 -20 0 -13 -7 -20 -20 -20 -13 0 -20 7 -20 20 0 13 -7 20 -20
20 -13 0 -20 7 -20 20 0 13 -7 20 -20 20 -13 0 -20 7 -20 20 0 13 -7 20 -20
20 -11 0 -20 7 -20 15 0 18 -17 20 -22 3 -3 -8 -7 -9 -11 -2 -3 6 3 20 13 32
11 12 20 27 20 34 0 6 -11 -3 -25 -21 -19 -26 -22 -38 -14 -52 7 -13 6 -19 -1
-19 -6 0 -9 -4 -5 -9 10 -17 -34 -34 -51 -20 -11 9 -14 8 -14 -4 0 -17 -38
-43 -48 -33 -3 3 1 6 9 7 8 0 5 4 -7 9 -11 4 -40 4 -65 -1 -24 -4 -179 -8
-345 -9 -241 0 -311 3 -352 15 -68 20 -152 97 -189 173 l-28 57 -5 283 c-5
283 -5 284 -29 303 -22 18 -42 19 -287 19 -243 0 -268 2 -319 21 -69 26 -160
112 -196 184 -24 49 -24 55 -27 363 -2 171 -6 312 -10 312 -4 0 -45 -38 -92
-85 -47 -47 -89 -85 -94 -85 -4 0 -3 7 4 15 12 14 7 20 -14 16 -5 -1 -6 5 -2
14 3 9 6 27 6 40 0 18 6 24 27 27 14 2 28 9 31 16 2 7 0 12 -5 10 -4 -1 -18 1
-30 6 -25 8 -31 26 -10 26 8 0 7 4 -3 10 -11 7 -12 10 -2 10 33 0 -16 27 -61
33 -26 4 -58 9 -72 13 -20 5 -25 2 -30 -19z"/>
<path d="M4940 6630 c-13 -16 -29 -47 -35 -67 -8 -31 -16 -39 -38 -41 -15 -2
-27 1 -27 7 0 6 -9 11 -20 11 -11 0 -20 5 -20 10 0 18 -68 11 -79 -7 -9 -16
-10 -16 -11 4 0 12 -5 23 -11 25 -6 2 -1 14 10 27 12 13 21 29 21 34 0 7 -48
8 -137 4 -75 -4 -230 -7 -346 -7 l-209 0 -34 -34 -35 -35 3 -251 3 -252 36
-32 35 -33 199 -6 c109 -4 260 -7 335 -7 126 0 140 -2 170 -22 18 -13 43 -36
54 -51 20 -27 21 -43 26 -369 l5 -340 33 -29 32 -29 263 0 c242 0 264 2 294
20 50 30 54 60 51 390 l-3 295 -37 -57 c-21 -31 -46 -59 -57 -63 -12 -3 -24
-22 -32 -48 -12 -43 -12 -43 -46 -33 -34 11 -36 16 -34 79 1 20 -3 37 -9 37
-5 0 -11 17 -12 38 -1 20 -4 -45 -7 -146 l-6 -184 -34 -30 c-28 -25 -39 -29
-69 -24 -21 3 -49 18 -67 36 l-30 31 0 305 0 305 -33 35 c-72 76 -63 74 -394
74 l-296 0 -26 31 c-34 40 -35 93 -2 134 l24 30 268 3 c250 3 269 5 285 23 9
10 21 19 28 19 6 0 24 14 41 32 33 35 54 31 24 -4 -10 -13 -4 -9 15 7 30 27
32 34 27 72 -3 24 -10 51 -15 60 -5 10 -12 26 -15 36 -8 25 -28 21 -56 -13z
m-110 -180 c0 -5 -2 -10 -4 -10 -3 0 -8 5 -11 10 -3 6 -1 10 4 10 6 0 11 -4
11 -10z"/>
<path d="M5316 6034 c-9 -25 -7 -56 4 -49 10 6 13 -2 12 -45 l-1 -25 7 25 c5
17 10 21 16 12 4 -6 18 -12 31 -12 13 0 27 -4 30 -10 10 -17 25 -11 25 10 0
13 -7 20 -20 20 -13 0 -20 7 -20 20 0 13 -7 20 -20 20 -13 0 -20 7 -20 19 0
10 -7 22 -16 25 -21 8 -21 8 -28 -10z"/>
<path d="M5270 5884 c0 -14 3 -14 15 -4 8 7 15 14 15 16 0 2 -7 4 -15 4 -8 0
-15 -7 -15 -16z"/>
<path d="M6078 5740 c-248 -4 -279 -7 -295 -23 -16 -16 -19 -46 -23 -297 -3
-154 -3 -285 -2 -290 6 -16 22 -12 22 5 0 8 8 23 19 34 10 10 21 35 25 55 4
20 11 36 16 36 5 0 12 11 16 25 3 14 10 25 15 25 5 0 9 7 9 15 0 8 5 15 10 15
6 0 10 7 10 15 0 9 16 23 35 32 19 9 35 20 35 24 0 4 10 9 21 12 15 4 20 11
15 21 -3 9 -9 22 -12 30 -4 11 3 13 36 9 32 -5 51 -1 83 17 23 13 45 27 48 32
3 5 52 56 109 114 57 57 99 103 94 102 -5 -1 -134 -5 -286 -8z"/>
</g>
</svg>
